<svg width="4140" height="600" viewBox="0 0 4140 600" fill="none" xmlns="http://www.w3.org/2000/svg">
<path d="M835.15 458L832.9 415.7V342.35C832.9 327.05 831.25 314.3 827.95 304.1C824.95 293.6 819.85 285.65 812.65 280.25C805.75 274.55 796.45 271.7 784.75 271.7C773.95 271.7 764.5 273.95 756.4 278.45C748.3 282.95 741.4 290 735.7 299.6L691.6 283.4C696.4 273.5 702.7 264.35 710.5 255.95C718.6 247.25 728.65 240.35 740.65 235.25C752.95 230.15 767.65 227.6 784.75 227.6C806.65 227.6 824.95 231.95 839.65 240.65C854.35 249.05 865.15 261.2 872.05 277.1C879.25 293 882.85 312.2 882.85 334.7L881.5 458H835.15ZM770.35 463.4C743.35 463.4 722.35 457.4 707.35 445.4C692.65 433.4 685.3 416.45 685.3 394.55C685.3 371.15 693.1 353.3 708.7 341C724.6 328.7 746.65 322.55 774.85 322.55H835.15V361.25H791.05C770.95 361.25 756.85 364.1 748.75 369.8C740.65 375.2 736.6 383 736.6 393.2C736.6 401.9 740.05 408.8 746.95 413.9C754.15 418.7 764.05 421.1 776.65 421.1C788.05 421.1 797.95 418.55 806.35 413.45C814.75 408.35 821.2 401.6 825.7 393.2C830.5 384.8 832.9 375.35 832.9 364.85H847.75C847.75 395.45 841.6 419.6 829.3 437.3C817 454.7 797.35 463.4 770.35 463.4ZM937.036 458V233H986.986V458H937.036ZM962.236 190.25C954.136 190.25 947.086 187.4 941.086 181.7C935.386 175.7 932.536 168.65 932.536 160.55C932.536 152.45 935.386 145.55 941.086 139.85C947.086 134.15 954.136 131.3 962.236 131.3C970.336 131.3 977.236 134.15 982.936 139.85C988.936 145.55 991.936 152.45 991.936 160.55C991.936 168.65 988.936 175.7 982.936 181.7C977.236 187.4 970.336 190.25 962.236 190.25ZM1151.69 463.4C1128.59 463.4 1108.19 458.45 1090.49 448.55C1072.79 438.35 1058.84 424.4 1048.64 406.7C1038.74 389 1033.79 368.6 1033.79 345.5C1033.79 322.4 1038.74 302 1048.64 284.3C1058.84 266.6 1072.64 252.8 1090.04 242.9C1107.74 232.7 1127.99 227.6 1150.79 227.6C1172.99 227.6 1193.09 233 1211.09 243.8C1229.09 254.3 1242.44 269.45 1251.14 289.25L1204.34 307.25C1199.54 297.35 1192.19 289.4 1182.29 283.4C1172.39 277.4 1161.14 274.4 1148.54 274.4C1136.24 274.4 1125.29 277.55 1115.69 283.85C1106.09 289.85 1098.59 298.25 1093.19 309.05C1087.79 319.55 1085.09 331.7 1085.09 345.5C1085.09 359.3 1087.79 371.6 1093.19 382.4C1098.89 392.9 1106.54 401.3 1116.14 407.6C1126.04 413.6 1137.14 416.6 1149.44 416.6C1162.04 416.6 1173.29 413.45 1183.19 407.15C1193.09 400.55 1200.44 391.7 1205.24 380.6L1252.04 398.6C1243.34 419 1229.99 434.9 1211.99 446.3C1194.29 457.7 1174.19 463.4 1151.69 463.4ZM1394.66 463.4C1372.16 463.4 1352.06 458.45 1334.36 448.55C1316.96 438.35 1303.31 424.4 1293.41 406.7C1283.51 389 1278.56 368.6 1278.56 345.5C1278.56 322.4 1283.36 302 1292.96 284.3C1302.86 266.6 1316.51 252.8 1333.91 242.9C1351.31 232.7 1371.26 227.6 1393.76 227.6C1416.26 227.6 1436.21 232.7 1453.61 242.9C1471.01 252.8 1484.51 266.6 1494.11 284.3C1504.01 302 1508.96 322.4 1508.96 345.5C1508.96 368.6 1504.16 389 1494.56 406.7C1484.96 424.4 1471.46 438.35 1454.06 448.55C1436.66 458.45 1416.86 463.4 1394.66 463.4ZM1394.66 417.05C1406.96 417.05 1417.91 414.05 1427.51 408.05C1437.11 401.75 1444.61 393.35 1450.01 382.85C1455.41 372.05 1458.11 359.6 1458.11 345.5C1458.11 331.4 1455.26 319.1 1449.56 308.6C1444.16 297.8 1436.66 289.4 1427.06 283.4C1417.46 277.1 1406.36 273.95 1393.76 273.95C1381.16 273.95 1370.06 276.95 1360.46 282.95C1350.86 288.95 1343.36 297.35 1337.96 308.15C1332.56 318.95 1329.86 331.4 1329.86 345.5C1329.86 359.6 1332.56 372.05 1337.96 382.85C1343.66 393.35 1351.31 401.75 1360.91 408.05C1370.81 414.05 1382.06 417.05 1394.66 417.05ZM1575.14 458V209.15C1575.14 185.45 1580.99 167.3 1592.69 154.7C1604.69 141.8 1622.69 135.35 1646.69 135.35C1654.49 135.35 1662.74 136.7 1671.44 139.4C1680.44 141.8 1688.99 145.1 1697.09 149.3L1678.64 186.65C1672.94 183.95 1667.84 182 1663.34 180.8C1659.14 179.6 1655.39 179 1652.09 179C1643.09 179 1636.34 182 1631.84 188C1627.64 193.7 1625.54 203.15 1625.54 216.35V458H1575.14ZM1536.44 274.4V233H1684.49V274.4H1536.44ZM1824.89 463.4C1802.39 463.4 1782.29 458.45 1764.59 448.55C1747.19 438.35 1733.54 424.4 1723.64 406.7C1713.74 389 1708.79 368.6 1708.79 345.5C1708.79 322.4 1713.59 302 1723.19 284.3C1733.09 266.6 1746.74 252.8 1764.14 242.9C1781.54 232.7 1801.49 227.6 1823.99 227.6C1846.49 227.6 1866.44 232.7 1883.84 242.9C1901.24 252.8 1914.74 266.6 1924.34 284.3C1934.24 302 1939.19 322.4 1939.19 345.5C1939.19 368.6 1934.39 389 1924.79 406.7C1915.19 424.4 1901.69 438.35 1884.29 448.55C1866.89 458.45 1847.09 463.4 1824.89 463.4ZM1824.89 417.05C1837.19 417.05 1848.14 414.05 1857.74 408.05C1867.34 401.75 1874.84 393.35 1880.24 382.85C1885.64 372.05 1888.34 359.6 1888.34 345.5C1888.34 331.4 1885.49 319.1 1879.79 308.6C1874.39 297.8 1866.89 289.4 1857.29 283.4C1847.69 277.1 1836.59 273.95 1823.99 273.95C1811.39 273.95 1800.29 276.95 1790.69 282.95C1781.09 288.95 1773.59 297.35 1768.19 308.15C1762.79 318.95 1760.09 331.4 1760.09 345.5C1760.09 359.6 1762.79 372.05 1768.19 382.85C1773.89 393.35 1781.54 401.75 1791.14 408.05C1801.04 414.05 1812.29 417.05 1824.89 417.05ZM2133.61 458L2130.91 416.6V233H2180.86V458H2133.61ZM1977.91 348.2V233H2028.31V348.2H1977.91ZM2028.31 348.2C2028.31 365.9 2030.41 379.7 2034.61 389.6C2038.81 399.5 2044.51 406.4 2051.71 410.3C2059.21 414.2 2067.76 416.15 2077.36 416.15C2094.46 416.45 2107.66 410.9 2116.96 399.5C2126.26 388.1 2130.91 371.75 2130.91 350.45H2149.81C2149.81 374.15 2146.21 394.55 2139.01 411.65C2132.11 428.45 2122.21 441.35 2109.31 450.35C2096.71 459.05 2081.41 463.4 2063.41 463.4C2045.71 463.4 2030.41 459.8 2017.51 452.6C2004.91 445.4 1995.16 434.15 1988.26 418.85C1981.36 403.55 1977.91 383.9 1977.91 359.9V348.2H2028.31ZM2236.86 458V233H2284.11L2287.26 274.4V458H2236.86ZM2389.41 458V342.8H2439.81V458H2389.41ZM2389.41 342.8C2389.41 324.8 2387.31 311 2383.11 301.4C2379.21 291.5 2373.51 284.6 2366.01 280.7C2358.81 276.8 2350.26 274.85 2340.36 274.85C2323.56 274.55 2310.51 280.1 2301.21 291.5C2291.91 302.9 2287.26 319.25 2287.26 340.55H2268.36C2268.36 316.85 2271.81 296.6 2278.71 279.8C2285.61 262.7 2295.51 249.8 2308.41 241.1C2321.31 232.1 2336.61 227.6 2354.31 227.6C2372.31 227.6 2387.61 231.2 2400.21 238.4C2413.11 245.6 2422.86 256.85 2429.46 272.15C2436.36 287.15 2439.81 306.8 2439.81 331.1V342.8H2389.41ZM2653.32 458L2651.07 416.15V143H2701.02V458H2653.32ZM2579.97 463.4C2559.57 463.4 2541.72 458.6 2526.42 449C2511.42 439.1 2499.57 425.3 2490.87 407.6C2482.47 389.9 2478.27 369.2 2478.27 345.5C2478.27 321.5 2482.47 300.8 2490.87 283.4C2499.57 265.7 2511.42 252.05 2526.42 242.45C2541.72 232.55 2559.57 227.6 2579.97 227.6C2598.87 227.6 2615.07 232.55 2628.57 242.45C2642.37 252.05 2652.87 265.7 2660.07 283.4C2667.27 300.8 2670.87 321.5 2670.87 345.5C2670.87 369.2 2667.27 389.9 2660.07 407.6C2652.87 425.3 2642.37 439.1 2628.57 449C2615.07 458.6 2598.87 463.4 2579.97 463.4ZM2592.57 417.5C2603.97 417.5 2614.02 414.5 2622.72 408.5C2631.72 402.2 2638.62 393.65 2643.42 382.85C2648.52 372.05 2651.07 359.6 2651.07 345.5C2651.07 331.4 2648.52 318.95 2643.42 308.15C2638.62 297.35 2631.72 288.95 2622.72 282.95C2614.02 276.95 2603.82 273.95 2592.12 273.95C2580.12 273.95 2569.47 276.95 2560.17 282.95C2550.87 288.95 2543.52 297.35 2538.12 308.15C2533.02 318.95 2530.32 331.4 2530.02 345.5C2530.32 359.6 2533.02 372.05 2538.12 382.85C2543.52 393.65 2550.87 402.2 2560.17 408.5C2569.77 414.5 2580.57 417.5 2592.57 417.5ZM2857.09 463.4C2835.19 463.4 2815.69 458.45 2798.59 448.55C2781.79 438.35 2768.44 424.4 2758.54 406.7C2748.94 389 2744.14 368.6 2744.14 345.5C2744.14 322.4 2749.09 302 2758.99 284.3C2768.89 266.6 2782.39 252.8 2799.49 242.9C2816.89 232.7 2836.69 227.6 2858.89 227.6C2878.99 227.6 2897.14 232.85 2913.34 243.35C2929.54 253.55 2942.29 268.4 2951.59 287.9C2961.19 307.4 2965.99 330.65 2965.99 357.65H2789.14L2795.89 351.35C2795.89 365.15 2798.89 377.15 2804.89 387.35C2810.89 397.25 2818.84 404.9 2828.74 410.3C2838.64 415.7 2849.59 418.4 2861.59 418.4C2875.39 418.4 2886.79 415.4 2895.79 409.4C2904.79 403.1 2911.84 395 2916.94 385.1L2961.49 404C2955.19 416 2947.09 426.5 2937.19 435.5C2927.59 444.5 2916.04 451.4 2902.54 456.2C2889.34 461 2874.19 463.4 2857.09 463.4ZM2799.04 325.25L2791.84 318.95H2918.74L2911.99 325.25C2911.99 312.95 2909.29 302.9 2903.89 295.1C2898.49 287 2891.59 281 2883.19 277.1C2875.09 272.9 2866.54 270.8 2857.54 270.8C2848.54 270.8 2839.54 272.9 2830.54 277.1C2821.54 281 2814.04 287 2808.04 295.1C2802.04 302.9 2799.04 312.95 2799.04 325.25ZM3037.89 338.3C3037.89 314 3042.54 294.05 3051.84 278.45C3061.14 262.85 3073.14 251.3 3087.84 243.8C3102.84 236 3118.44 232.1 3134.64 232.1V280.25C3120.84 280.25 3107.79 282.2 3095.49 286.1C3083.49 289.7 3073.74 295.7 3066.24 304.1C3058.74 312.5 3054.99 323.6 3054.99 337.4L3037.89 338.3ZM3004.59 458V233H3054.99V458H3004.59ZM3192.37 464.3C3183.67 464.3 3176.17 461.3 3169.87 455.3C3163.87 449 3160.87 441.5 3160.87 432.8C3160.87 424.1 3163.87 416.6 3169.87 410.3C3176.17 404 3183.67 400.85 3192.37 400.85C3201.07 400.85 3208.57 404 3214.87 410.3C3221.17 416.6 3224.32 424.1 3224.32 432.8C3224.32 441.5 3221.17 449 3214.87 455.3C3208.57 461.3 3201.07 464.3 3192.37 464.3ZM3377.96 463.4C3354.86 463.4 3334.46 458.45 3316.76 448.55C3299.06 438.35 3285.11 424.4 3274.91 406.7C3265.01 389 3260.06 368.6 3260.06 345.5C3260.06 322.4 3265.01 302 3274.91 284.3C3285.11 266.6 3298.91 252.8 3316.31 242.9C3334.01 232.7 3354.26 227.6 3377.06 227.6C3399.26 227.6 3419.36 233 3437.36 243.8C3455.36 254.3 3468.71 269.45 3477.41 289.25L3430.61 307.25C3425.81 297.35 3418.46 289.4 3408.56 283.4C3398.66 277.4 3387.41 274.4 3374.81 274.4C3362.51 274.4 3351.56 277.55 3341.96 283.85C3332.36 289.85 3324.86 298.25 3319.46 309.05C3314.06 319.55 3311.36 331.7 3311.36 345.5C3311.36 359.3 3314.06 371.6 3319.46 382.4C3325.16 392.9 3332.81 401.3 3342.41 407.6C3352.31 413.6 3363.41 416.6 3375.71 416.6C3388.31 416.6 3399.56 413.45 3409.46 407.15C3419.36 400.55 3426.71 391.7 3431.51 380.6L3478.31 398.6C3469.61 419 3456.26 434.9 3438.26 446.3C3420.56 457.7 3400.46 463.4 3377.96 463.4ZM3620.93 463.4C3598.43 463.4 3578.33 458.45 3560.63 448.55C3543.23 438.35 3529.58 424.4 3519.68 406.7C3509.78 389 3504.83 368.6 3504.83 345.5C3504.83 322.4 3509.63 302 3519.23 284.3C3529.13 266.6 3542.78 252.8 3560.18 242.9C3577.58 232.7 3597.53 227.6 3620.03 227.6C3642.53 227.6 3662.48 232.7 3679.88 242.9C3697.28 252.8 3710.78 266.6 3720.38 284.3C3730.28 302 3735.23 322.4 3735.23 345.5C3735.23 368.6 3730.43 389 3720.83 406.7C3711.23 424.4 3697.73 438.35 3680.33 448.55C3662.93 458.45 3643.13 463.4 3620.93 463.4ZM3620.93 417.05C3633.23 417.05 3644.18 414.05 3653.78 408.05C3663.38 401.75 3670.88 393.35 3676.28 382.85C3681.68 372.05 3684.38 359.6 3684.38 345.5C3684.38 331.4 3681.53 319.1 3675.83 308.6C3670.43 297.8 3662.93 289.4 3653.33 283.4C3643.73 277.1 3632.63 273.95 3620.03 273.95C3607.43 273.95 3596.33 276.95 3586.73 282.95C3577.13 288.95 3569.63 297.35 3564.23 308.15C3558.83 318.95 3556.13 331.4 3556.13 345.5C3556.13 359.6 3558.83 372.05 3564.23 382.85C3569.93 393.35 3577.58 401.75 3587.18 408.05C3597.08 414.05 3608.33 417.05 3620.93 417.05ZM3778.91 458V233H3826.16L3828.41 263.15C3835.31 251.45 3844.16 242.6 3854.96 236.6C3865.76 230.6 3878.06 227.6 3891.86 227.6C3909.86 227.6 3925.16 231.65 3937.76 239.75C3950.36 247.85 3959.51 260.15 3965.21 276.65C3971.81 260.75 3981.11 248.6 3993.11 240.2C4005.11 231.8 4019.21 227.6 4035.41 227.6C4061.51 227.6 4081.61 236 4095.71 252.8C4109.81 269.3 4116.71 294.8 4116.41 329.3V458H4066.46V342.8C4066.46 324.8 4064.51 311 4060.61 301.4C4056.71 291.5 4051.46 284.6 4044.86 280.7C4038.26 276.8 4030.61 274.85 4021.91 274.85C4006.31 274.55 3994.16 280.1 3985.46 291.5C3977.06 302.9 3972.86 319.25 3972.86 340.55V458H3922.46V342.8C3922.46 324.8 3920.51 311 3916.61 301.4C3913.01 291.5 3907.91 284.6 3901.31 280.7C3894.71 276.8 3887.06 274.85 3878.36 274.85C3862.76 274.55 3850.61 280.1 3841.91 291.5C3833.51 302.9 3829.31 319.25 3829.31 340.55V458H3778.91Z" fill="#333333"/>
<g clip-path="url(#clip0_214_1015)">
<path d="M260 0L519.808 150V450L260 600L0.192383 450V150L260 0Z" fill="#B85C44"/>
<path d="M260 75L454.856 187.5V412.5L260 525L65.1445 412.5V187.5L260 75Z" fill="#C97A66"/>
<path d="M260 175L368.253 237.5V362.5L260 425L151.747 362.5V237.5L260 175Z" fill="#F2F1EC"/>
</g>
<defs>
<clipPath id="clip0_214_1015">
<rect width="520" height="600" fill="white"/>
</clipPath>
</defs>
</svg>
